<svg xmlns="http://www.w3.org/2000/svg" viewBox="0 0 42.38 42.37"><defs><style>.cls-1{fill:#969696;}</style></defs><title>BuscarRecurso 9</title><g id="Capa_2" data-name="Capa 2"><g id="Capa_1-2" data-name="Capa 1"><path class="cls-1" d="M40.22,42.37a11.85,11.85,0,0,1-1.33-1q-5.61-5.58-11.2-11.2a2.5,2.5,0,0,1-.29-.41,16.63,16.63,0,0,1-14.21,3.38A16.18,16.18,0,0,1,2.94,26.2a16.75,16.75,0,1,1,26.89,1.11l.32.34c3.74,3.74,7.48,7.46,11.2,11.21a12.76,12.76,0,0,1,1,1.36V41A2.12,2.12,0,0,1,41,42.37ZM30,16.76A13.24,13.24,0,1,0,16.8,30,13.26,13.26,0,0,0,30,16.76Z"/></g></g></svg>