<svg xmlns="http://www.w3.org/2000/svg" viewBox="0 0 45.18 39.71"><defs><style>.cls-1{fill:#592215;}</style></defs><title>CARRITORecurso 1</title><g id="Capa_2" data-name="Capa 2"><g id="Capa_1-2" data-name="Capa 1"><g id="Desplegable_fin"><path class="cls-1" d="M45.18,7c-.32,1.08-.66,2.16-1,3.24q-2.15,7.52-4.3,15a1.43,1.43,0,0,1-1.65,1.24H14.92c-1.06,0-1.68.48-1.68,1.32s.62,1.32,1.68,1.32H38.21c1.06,0,1.68.49,1.68,1.33s-.62,1.32-1.68,1.32H36.43c2.48.65,3.7,2.38,3.38,4.65a4,4,0,1,1-4.43-4.63H17.84a4.15,4.15,0,0,1,2.62,1.69,4,4,0,0,1,.64,3,4,4,0,0,1-4,3.21,4,4,0,0,1-3.87-3.79,4.09,4.09,0,0,1,3.33-4.15c-.64,0-1.27,0-1.9,0A4,4,0,0,1,10.78,29a3.93,3.93,0,0,1,1.88-4.63l.32-.19L8.2,2.65H6c-1.54,0-3.09,0-4.63,0A1.32,1.32,0,0,1,.1.84,1.25,1.25,0,0,1,1.3,0C3.94,0,6.59,0,9.24,0A1.34,1.34,0,0,1,10.6,1.22l.91,4.08H43.4a1.68,1.68,0,0,1,1.78,1ZM42.1,8h-30l3.52,15.84h22Q39.83,15.89,42.1,8ZM18.53,35.74a1.32,1.32,0,1,0-1.32,1.32A1.33,1.33,0,0,0,18.53,35.74Zm18.71,0a1.32,1.32,0,1,0-1.31,1.33A1.34,1.34,0,0,0,37.24,35.73Z"/></g></g></g></svg>