<svg xmlns="http://www.w3.org/2000/svg" viewBox="0 0 52.18 46.64"><defs><style>.cls-1{fill:#969696;}</style></defs><title>CartRecurso 6</title><g id="Capa_2" data-name="Capa 2"><g id="Capa_1-2" data-name="Capa 1"><g id="Desplegable_fin"><path class="cls-1" d="M0,1.17A1.84,1.84,0,0,1,2,0c1.7.05,3.4,0,5.09,0A3.7,3.7,0,0,1,11,3c.54,2,1.08,4,1.59,6a.53.53,0,0,0,.61.48q11.22,0,22.43.09L49,9.62a3,3,0,0,1,3.12,3.85q-1.81,8-3.71,16.06a3.74,3.74,0,0,1-3.71,2.92H15.62a4.33,4.33,0,0,0-.72,0,1.7,1.7,0,0,0,0,3.38c.23,0,.47,0,.71,0H45.5c1.21,0,1.93.69,1.81,1.74-.06.51-.31.84-1,1.25,1,2.76.52,5.13-2,6.85a5.23,5.23,0,0,1-6-.15c-2-1.48-2.58-3.54-1.78-6.59H27.07c.95,2.71.43,5.06-2,6.72a4.92,4.92,0,0,1-5.84,0c-2.41-1.64-2.91-4-2-6.75-.73,0-1.42,0-2.11,0a4.77,4.77,0,0,1-.65-9.5l.38-.05c0-.2-.07-.38-.11-.55Q11.4,16.33,8,3.85c-.18-.67-.3-.77-1-.77-1.7,0-3.4,0-5.09,0A1.81,1.81,0,0,1,0,1.88ZM15.42,19.46h5.92c0-.23,0-.43-.06-.63C21,16.9,20.75,15,20.51,13c0-.37-.16-.47-.52-.47-1.87,0-3.74,0-5.6,0h-.84Zm18,0a1,1,0,0,0,.21,0h5.24c.34,0,.39-.17.42-.43.15-1.23.32-2.45.48-3.68.12-.9.23-1.8.35-2.75h-6.7Zm-3.11-6.84H23.54l.91,6.85h5.82Zm18.88.05c-1.94,0-3.81,0-5.67,0-.12,0-.32.22-.34.36-.19,1.22-.35,2.45-.51,3.68-.11.91-.23,1.81-.34,2.75h5.29ZM16.24,22.55c.59,2.16,1.14,4.22,1.71,6.27a.82.82,0,0,0,.87.57h3.83c0-.22,0-.38,0-.52L22,24.13c-.08-.51,0-1.22-.32-1.48s-1-.09-1.52-.09Zm22.53,0H33.38v6.81c1.44,0,2.85,0,4.25,0,.1,0,.27-.22.29-.35.15-1,.27-1.92.39-2.88C38.47,25,38.62,23.8,38.77,22.58Zm-8.51,6.78V22.58h-5.4l.91,6.78Zm16.59-6.78h-5l-.9,6.8c1.29,0,2.52,0,3.76,0,.45,0,.65-.35.74-.77.27-1.23.56-2.45.84-3.67C46.49,24.16,46.66,23.39,46.85,22.58ZM22.17,43.5a2.29,2.29,0,0,0,2.29-2.3,2.33,2.33,0,0,0-2.29-2.28,2.31,2.31,0,0,0-2.3,2.3A2.26,2.26,0,0,0,22.17,43.5Zm19.3,0a2.26,2.26,0,0,0,2.31-2.27,2.29,2.29,0,0,0-4.57,0A2.26,2.26,0,0,0,41.47,43.5Z"/></g></g></g></svg>