<svg xmlns="http://www.w3.org/2000/svg" viewBox="0 0 26.91 37.7"><defs><style>.cls-1{fill:#969696;}</style></defs><title>DireccionRecurso 10</title><g id="Capa_2" data-name="Capa 2"><g id="Capa_1-2" data-name="Capa 1"><g id="Desplegable_fin"><path class="cls-1" d="M14.24,0c.87.14,1.74.24,2.59.43A13,13,0,0,1,23,3.68a11.93,11.93,0,0,1,3.7,6.49A11.64,11.64,0,0,1,25.2,18.7L14.34,37a1.9,1.9,0,0,1-.34.45.86.86,0,0,1-1.34-.29q-1.27-2.13-2.53-4.28-4.16-7-8.32-14A12,12,0,0,1,4.16,3.5,13.42,13.42,0,0,1,10.53.31C11.23.16,12,.1,12.66,0ZM13.5,6.28a6.54,6.54,0,0,0-6.77,6.2,6.51,6.51,0,0,0,6.62,6.37,6.53,6.53,0,0,0,6.82-6.22A6.5,6.5,0,0,0,13.5,6.28Z"/></g></g></g></svg>