<svg xmlns="http://www.w3.org/2000/svg" viewBox="0 0 107.5 82.56"><defs><style>.cls-1{fill:#969696;}</style></defs><title>LOgo_BaileRecurso 15</title><g id="Capa_2" data-name="Capa 2"><g id="Capa_1-2" data-name="Capa 1"><path class="cls-1" d="M53.62,82.56h-.09A98.38,98.38,0,0,1,29.36,75,53.23,53.23,0,0,1,12.52,63a29.67,29.67,0,0,1-8-19.4,16.2,16.2,0,0,1-2.63-4.43,28.16,28.16,0,0,1-1.66-14c1.37-12.33,3.83-14.62,4.1-14.84L4.78,10l.35.47c0,.05,1.21,1.47,4.46,1.69s8.8-.67,18.16-6C34.27,2.32,43.34.11,52.65,0c9.77-.11,18.93,2.05,25.79,6.07,8.82,5.16,15.7,8.45,24.07,3.66l.48-.28.28.48a28,28,0,0,1,2.52,6.17,44.75,44.75,0,0,1,1.52,16.54c.06.63.32,5.11-3.9,10.68,0,1.25-.61,8.08-6.35,16a48.69,48.69,0,0,1-14.8,13.07c-7.7,4.55-17.3,8-28.54,10.16ZM4.73,11.61C4,12.67,2.37,16.05,1.35,25.28,0,37.32,5.42,42.94,5.47,43l.16.16v.22C6,59.26,19,68.75,29.82,73.91a97.45,97.45,0,0,0,23.78,7.5c25-4.89,36.91-15,42.49-22.7,6-8.29,6.19-15.53,6.19-15.6v-.19l.12-.15c4.28-5.57,3.78-10,3.77-10.05V32.6a43.42,43.42,0,0,0-1.46-16.13A31.33,31.33,0,0,0,102.57,11,16.82,16.82,0,0,1,90.2,12.71c-4.1-1-8.17-3.23-12.33-5.66C64.34-.88,42.11-.88,28.32,7.05,12.5,16.14,6.39,13,4.73,11.61Z"/><path class="cls-1" d="M19.33,56a3.24,3.24,0,0,1-1.39-2.68,2.8,2.8,0,0,1,.45-1.51A1.37,1.37,0,0,1,19.56,51a.59.59,0,0,1,.58.41A3.13,3.13,0,0,1,20,52a.77.77,0,0,0,.26,1,1.25,1.25,0,0,0,.64.23c.74,0,1.12-.44,1.12-1.33a1.78,1.78,0,0,0-.61-1.41A2.11,2.11,0,0,0,20,50,2.18,2.18,0,0,0,18.17,51a4,4,0,0,0,1,5.63,4.16,4.16,0,0,0,1.32.57v-.71A3.51,3.51,0,0,1,19.33,56Z"/><path class="cls-1" d="M38.11,55.76s-.78,2-2.31,2c-2.37,0,.83-15.17,1-16.36a44.07,44.07,0,0,0,.52-5.68q0-4.82-2.22-4.81c-1,0-2,1-3,2.89q-.23.43-1.79,4.28c-.77,1.93-1.3,3.28-1.58,4,0,0-3.59,9.7-4.37,10.91s-1.59,3.34-3.82,3.51v.71s3.22,1.08,5.88-6.18c1.91-5.23,2.57-7.25,2.79-8,.32-1,.55-1.62.69-2q.95-2.45,1.56-3.93c.84-2.08,1.36-3.32,1.57-3.72.67-1.32,1.33-2,2-2,.86,0,1.28.9,1.28,2.7a39.64,39.64,0,0,1-1.1,6.55c-.37,1.7-.69,3.2-1,4.51l0,0s-3.8,13.07,1.66,13c0,0,1.52.2,2.71-2.3Z"/><path class="cls-1" d="M52.85,53.11c0,.38-.38,1-1.14,1.87a4.26,4.26,0,0,1-3,1.78c-1.44,0-2.15-.86-2.15-2.57q0-1.55,1.77-5.09t1.77-4.39c0-.66-.28-1-.84-1-.73,0-1.65.64-2.75,1.9a29.25,29.25,0,0,0-4.95,8.66c-.18.4-.5,1.14-1,2.24,0,.07-.4.1-1.12.1a7.52,7.52,0,0,1-1.18-.08v-.24a48.91,48.91,0,0,1,2.24-5.64q2.23-5.2,2.24-6.21c0-.48-.17-.73-.5-.73q-.78,0-1.77,1.53H40V45c0-.24.25-.59.77-1.05a4.52,4.52,0,0,1,1-.78,2.59,2.59,0,0,1,.88-.17c1.26,0,1.89.79,1.89,2.38q0-.13-.09,1.53c2.25-2.66,4-4,5.35-4,1.53,0,2.3.81,2.3,2.43,0,1-.64,2.74-1.9,5.31s-1.89,4.11-1.89,4.61.29.85.88.85,1.34-.47,2-1.41l1.2-1.8h.34A.34.34,0,0,1,52.85,53.11Z"/><path class="cls-1" d="M66.57,44q-.52,1.51-1.84,5.5c-.37,1.22-1.09,3.47-2.13,6.75q-3.24,10-7.31,12.49a5.06,5.06,0,0,1-2.54.92c-1.33,0-2-.76-2-2.29a8.61,8.61,0,0,1,3-6.13,17.57,17.57,0,0,1,6.08-3.9,7.88,7.88,0,0,0,.95-2.5,9.07,9.07,0,0,1,.3-.92Q58.54,56.79,57,56.79a2.63,2.63,0,0,1-2.47-1.73,6.12,6.12,0,0,1-.59-2.65q0-5.29,5.12-8.35a4.81,4.81,0,0,1,2.41-.76,2.64,2.64,0,0,1,2.49,1.88c.14,0,.26-.21.37-.54s.16-.51.2-.68Zm-7,14.28q-2.49.3-5.27,3.6c-1.84,2.19-2.76,4.1-2.76,5.71,0,1,.37,1.49,1.11,1.49a2.63,2.63,0,0,0,2-1C56.53,65.86,58.17,62.61,59.56,58.24Zm3.7-12q0-2.34-1.5-2.34c-1.35,0-2.66,1.37-3.95,4.09a15.24,15.24,0,0,0-1.72,6.29c0,1.21.41,1.81,1.22,1.81,1.2,0,2.51-1.31,3.95-3.93A13.38,13.38,0,0,0,63.26,46.23Z"/><path class="cls-1" d="M76.36,45q0,3.49-5.67,5.22c-.4.12-.81.23-1.25.34a2,2,0,0,0-.56.16q-.33.15-.51,1A11.92,11.92,0,0,0,68,54.16q0,2.46,1.89,2.46,1.74,0,4.22-3.4h.52a7,7,0,0,1-2,2.71,4.55,4.55,0,0,1-3,1.38c-2,0-3.28-1.32-3.84-4a3.36,3.36,0,0,1-.09-.66,11.1,11.1,0,0,1,2.39-6.5q2.56-3.56,5.71-3.55C75.53,42.62,76.36,43.42,76.36,45Zm-1.93-.49c0-.83-.26-1.25-.77-1.25-1.38,0-2.78,1.75-4.22,5.25A4.7,4.7,0,0,0,69,49.84a2.34,2.34,0,0,0,.7,0,6.09,6.09,0,0,0,2.54-1.22A4.65,4.65,0,0,0,74,46.46,6.13,6.13,0,0,0,74.43,44.55Z"/><path class="cls-1" d="M89.85,32.78a9.31,9.31,0,0,1-.48,2.51,17.77,17.77,0,0,1-3,5.51,15.53,15.53,0,0,1-5.14,4.61,1.54,1.54,0,0,0-.54.48,26.86,26.86,0,0,0-1.5,7.85c0,1.9.58,2.85,1.76,2.85s2.34-1.09,3.34-3.26h.56A7.1,7.1,0,0,1,83.42,56a3.45,3.45,0,0,1-2.58,1.35,3.19,3.19,0,0,1-2.23-1,3.77,3.77,0,0,1-1.23-2.16A19.33,19.33,0,0,1,77.12,52a26.74,26.74,0,0,1,2.37-9.72,27.88,27.88,0,0,1,5.08-8.61c1.75-1.84,3.06-2.76,3.91-2.76S89.85,31.54,89.85,32.78ZM89,32.49c0-.56-.21-.85-.63-.85-1.09,0-2.48,1.7-4.17,5.08a56.13,56.13,0,0,0-3.11,7.52,3.28,3.28,0,0,0-.08.48c.07,0,.82-.59,2.25-1.72a18.23,18.23,0,0,0,3.48-4.77C88.2,35.6,89,33.69,89,32.49Z"/><path class="cls-1" d="M39.93,34.46a14.52,14.52,0,0,0-1.06-6,10.6,10.6,0,0,0-3.65-4.62A10.44,10.44,0,0,0,29.73,22,11.91,11.91,0,0,0,24,23a10.94,10.94,0,0,0-4.42,3.6A12,12,0,0,0,17.56,32a19.06,19.06,0,0,0,0,5.84A8.87,8.87,0,0,0,25,45.27a14.58,14.58,0,0,0,5.77-.14A16.12,16.12,0,0,0,40.49,39a11.91,11.91,0,0,0,1.39-2.55l1-2.87,2-5.8a29.22,29.22,0,0,1,2.57-5.64,11.45,11.45,0,0,1,2.05-2.34,16.14,16.14,0,0,1,2.56-1.72,12.75,12.75,0,0,0-4.22,4.3,28.28,28.28,0,0,0-2.17,5.67L44,33.94c-.3,1-.62,2-1,2.94a12.72,12.72,0,0,1-1.44,2.88A15.45,15.45,0,0,1,37,44.22a18.7,18.7,0,0,1-5.87,2.49,16,16,0,0,1-6.43.2A10.36,10.36,0,0,1,16,38.09a19.91,19.91,0,0,1,0-6.4,13.58,13.58,0,0,1,2.45-6,12,12,0,0,1,5.09-3.94,12.8,12.8,0,0,1,6.32-.89,10.91,10.91,0,0,1,9.45,7.44A13.58,13.58,0,0,1,39.93,34.46Z"/><path class="cls-1" d="M50.64,29.29l0-.08c2.54-1.28,3.82-2.84,3.82-4.71a4.66,4.66,0,0,0-.95-2.67,6.35,6.35,0,0,0-3.13-2.47c-4.22-1.37-8.87-.09-9.33,3.28a2.29,2.29,0,0,0,2.37,2.79,5.45,5.45,0,0,0,1.11-.12,1.2,1.2,0,0,0,.77-1.55,1,1,0,0,0-1.27-.82,1.09,1.09,0,0,0-.44,1.44,1.51,1.51,0,0,0,.16.31h0a.2.2,0,0,1,.06.14.25.25,0,0,1-.23.24h0c-.89.05-2.24-.21-2-2.38.29-3.06,4.47-4,7.94-3.11,2.84.71,3.34,2.44,3.34,3.87a6.91,6.91,0,0,1-2,5c-.33.35-.57.53-.71.53a8,8,0,0,0-2.1-.66q-1.14,0-1.14.75c0,.49.46.74,1.39.74A3.94,3.94,0,0,0,50,29.48c.54.16.91.68,1.13,1.59a5.9,5.9,0,0,1,.07,1.11,8.89,8.89,0,0,1-1.41,4.63q-1.7,2.84-4.23,2.83c-1.53,0-2.3-.58-2.3-1.75a1.47,1.47,0,0,0,0-.31v-.37a1.08,1.08,0,0,0-.42.88A1.86,1.86,0,0,0,44,39.77a4.16,4.16,0,0,0,2,.49,6.91,6.91,0,0,0,4.85-2A6.25,6.25,0,0,0,53,33.53,4.81,4.81,0,0,0,50.64,29.29Z"/><path class="cls-1" d="M63.78,28.21q-.06.22-.57,1.77C61.72,34.41,61,36.76,61,37v.25c0,.39.18.59.54.59s1.06-.65,1.78-2h.42c-.76,1.64-1.59,2.46-2.5,2.46A1.4,1.4,0,0,1,60,37.69a7,7,0,0,1-.5-1.43q-.93,1.13-1.17,1.35a2.3,2.3,0,0,1-1.58.67c-1.5,0-2.25-1.15-2.25-3.46a7.59,7.59,0,0,1,3-6.11,3.89,3.89,0,0,1,2.41-1.06,2.12,2.12,0,0,1,1.87,1.46c.11-.24.29-.6.55-1.07H63.7A.17.17,0,0,1,63.78,28.21ZM61.17,30c0-1.25-.36-1.88-1.09-1.88s-1.66.89-2.5,2.66a17.4,17.4,0,0,0-1.35,3.9A8.45,8.45,0,0,0,56,36.45c0,.89.3,1.33.9,1.33.77,0,1.58-.77,2.43-2.32A16.72,16.72,0,0,0,60.82,32,7.92,7.92,0,0,0,61.17,30Z"/><path class="cls-1" d="M68.12,36a2.23,2.23,0,0,1-.31.61,2.77,2.77,0,0,1-2.27,1.65c-1.08,0-1.62-.62-1.62-1.87a11.44,11.44,0,0,1,1.18-3.88A12.42,12.42,0,0,0,66.27,29c0-.38-.13-.57-.4-.57s-.47.18-.78.55a4.18,4.18,0,0,1-.5.55h-.27s-.07-.05-.07-.12a1.62,1.62,0,0,1,.45-.73,2.74,2.74,0,0,1,.66-.64,2,2,0,0,1,.85-.24c1,0,1.46.57,1.46,1.7a13.92,13.92,0,0,1-1.2,4,15.9,15.9,0,0,0-1.21,3.61c0,.41.18.61.52.61A1.63,1.63,0,0,0,67,37l.79-1.1h.3S68.12,35.94,68.12,36Zm.54-11.35a2.16,2.16,0,0,1-.37,1.19,1.19,1.19,0,0,1-1,.64c-.47,0-.71-.34-.71-1a2.16,2.16,0,0,1,.29-1,1.15,1.15,0,0,1,1-.74Q68.66,23.77,68.66,24.67Z"/><path class="cls-1" d="M78.08,20.23a7.06,7.06,0,0,1-.35,1.85,13.29,13.29,0,0,1-2.2,4.06,11.43,11.43,0,0,1-3.8,3.38,1.23,1.23,0,0,0-.4.35,19.71,19.71,0,0,0-1.11,5.78c0,1.4.44,2.1,1.3,2.1s1.73-.8,2.47-2.4h.42a5.26,5.26,0,0,1-1.08,1.94,2.53,2.53,0,0,1-1.9,1,2.4,2.4,0,0,1-1.65-.71,2.8,2.8,0,0,1-.9-1.6,12.81,12.81,0,0,1-.19-1.58,19.69,19.69,0,0,1,1.74-7.15,20.62,20.62,0,0,1,3.75-6.34c1.3-1.35,2.26-2,2.89-2S78.08,19.32,78.08,20.23ZM77.42,20c0-.42-.15-.62-.46-.62q-1.2,0-3.08,3.73a41,41,0,0,0-2.29,5.53,2.08,2.08,0,0,0-.07.35c.06,0,.61-.43,1.67-1.26a13.7,13.7,0,0,0,2.57-3.51A10.2,10.2,0,0,0,77.42,20Z"/><path class="cls-1" d="M81.81,29.45c0,1.68-1.34,2.93-4,3.77l-.88.24a1.34,1.34,0,0,0-.4.12c-.15.07-.27.3-.36.71A8.36,8.36,0,0,0,75.92,36c0,1.19.45,1.78,1.33,1.78s1.82-.82,3-2.45h.37a5,5,0,0,1-1.39,1.95,3.19,3.19,0,0,1-2.12,1c-1.41,0-2.31-1-2.71-2.87a2.79,2.79,0,0,1-.06-.48A8.09,8.09,0,0,1,76,30.27q1.81-2.57,4-2.57A1.55,1.55,0,0,1,81.81,29.45Zm-1.37-.36c0-.59-.18-.89-.54-.89q-1.47,0-3,3.78a3.29,3.29,0,0,0-.31.93,1.39,1.39,0,0,0,.5,0A4.14,4.14,0,0,0,78.9,32a3.26,3.26,0,0,0,1.25-1.54A4.35,4.35,0,0,0,80.44,29.09Z"/><path class="cls-1" d="M29.64,23.6q0-.17-2.94,8.52a1.1,1.1,0,0,0-.06.37c0,.22.09.33.26.33s.49-.32.92-1H28V32l-.16.25q-.59.93-1.11.93a.73.73,0,0,1-.64-.42,1.4,1.4,0,0,1-.21-.79c-.06,0-.14.12-.25.27a2.32,2.32,0,0,1-.29.37,1.55,1.55,0,0,1-.95.48,1,1,0,0,1-.93-.67,2.51,2.51,0,0,1-.22-1,3.81,3.81,0,0,1,1.62-3.22,2.12,2.12,0,0,1,1.22-.52c.42,0,.74.28,1,.85l1.76-5h.77a0,0,0,0,0,0,0S29.64,23.56,29.64,23.6Zm-2.83,5.2c0-.62-.19-.93-.56-.93S25.44,28.26,25,29a8,8,0,0,0-.72,1.79l-.09.39a4.15,4.15,0,0,0-.12.85c0,.45.15.68.46.68s.94-.52,1.49-1.57A5.54,5.54,0,0,0,26.81,28.8Z"/><path class="cls-1" d="M32.52,28.54q0,1.28-2,1.92l-.45.12-.2.06c-.08,0-.14.16-.19.37a4.3,4.3,0,0,0-.12.88c0,.61.23.91.68.91s.93-.42,1.52-1.25h.19a2.54,2.54,0,0,1-.71,1,1.63,1.63,0,0,1-1.08.51c-.72,0-1.18-.49-1.38-1.46a1,1,0,0,1,0-.25A4.17,4.17,0,0,1,29.56,29a2.58,2.58,0,0,1,2.06-1.3A.79.79,0,0,1,32.52,28.54Zm-.69-.18c0-.31-.09-.46-.28-.46-.5,0-1,.64-1.52,1.93a2.15,2.15,0,0,0-.16.47h.26a2.27,2.27,0,0,0,.91-.45,1.74,1.74,0,0,0,.64-.79A2.32,2.32,0,0,0,31.83,28.36Z"/><path class="cls-1" d="M23.89,34.88c-.12.4-.53,1.67-1.23,3.79a3.51,3.51,0,0,0-.21.88c0,.21.08.32.25.32s.34-.15.54-.44c.05-.08.17-.27.38-.57h.17V39l-.17.31c-.3.58-.65.87-1.06.87s-.7-.36-.84-1.07c-.28.39-.45.62-.52.7a.89.89,0,0,1-.66.31.85.85,0,0,1-.79-.49,1.67,1.67,0,0,1-.19-.81A5.33,5.33,0,0,1,20,37.07a5.75,5.75,0,0,0,.47-1.57c0-.23-.06-.34-.18-.34s-.36.19-.59.58h-.2a1.44,1.44,0,0,1,.37-.62.86.86,0,0,1,.59-.3c.47,0,.7.34.7,1a5.59,5.59,0,0,1-.5,1.78,5.49,5.49,0,0,0-.49,1.76c0,.33.12.5.37.5s.44-.17.69-.49a4.52,4.52,0,0,0,.44-.74q.18-.41.6-1.47c.18-.54.44-1.3.79-2.28a1.13,1.13,0,0,1,.4,0A2,2,0,0,1,23.89,34.88Z"/><path class="cls-1" d="M29,38.79a1.58,1.58,0,0,1-.39.72,1.4,1.4,0,0,1-1,.68c-.49,0-.74-.33-.74-1a5.81,5.81,0,0,1,.61-2,6.72,6.72,0,0,0,.6-1.69c0-.26-.09-.39-.29-.39s-.55.24-.93.73a11.39,11.39,0,0,0-1.69,3.34l-.33.86a.9.9,0,0,1-.38,0,1.49,1.49,0,0,1-.4,0V40a19.16,19.16,0,0,1,.76-2.17,11.59,11.59,0,0,0,.76-2.39c0-.19-.05-.28-.17-.28s-.37.2-.6.59h-.17v-.11c0-.1.09-.23.26-.41a1.48,1.48,0,0,1,.35-.3.8.8,0,0,1,.3-.06c.43,0,.64.3.64.91,0,0,0,.17,0,.59.77-1,1.38-1.54,1.83-1.54s.78.32.78.94a6.51,6.51,0,0,1-.65,2,7.81,7.81,0,0,0-.64,1.78c0,.22.1.32.3.32s.46-.18.69-.54c.08-.15.22-.38.41-.69h.11A.13.13,0,0,1,29,38.79Z"/><path class="cls-1" d="M88,56.9a2.31,2.31,0,1,1,2.31-2.31A2.3,2.3,0,0,1,88,56.9Zm0-4.21a1.91,1.91,0,1,0,1.91,1.9A1.91,1.91,0,0,0,88,52.69Z"/><path class="cls-1" d="M89.07,55.67h-.35l-.39-.62a1.77,1.77,0,0,0-.17-.2.39.39,0,0,0-.15-.1l-.2,0h-.33v.94H87.2V53.54h.94a1.39,1.39,0,0,1,.32,0,.44.44,0,0,1,.23.1.43.43,0,0,1,.15.2.54.54,0,0,1,.06.25.53.53,0,0,1-.15.39.81.81,0,0,1-.45.19h0a.92.92,0,0,1,.4.39Zm-1.59-1.19h.61a1,1,0,0,0,.28,0,.33.33,0,0,0,.17-.13.29.29,0,0,0,.07-.2.32.32,0,0,0-.11-.24.47.47,0,0,0-.35-.11h-.67Z"/><path class="cls-1" d="M54.13,79.27l.86-.93a8.31,8.31,0,0,0,1.48-2.44,1.74,1.74,0,0,0-.36-1.75l-1.93,2.42a.94.94,0,0,1-.75.36h0a.93.93,0,0,1-.74-.36l-2-2.42a1.72,1.72,0,0,0-.36,1.75,8.14,8.14,0,0,0,1.48,2.44l.85.93L51.46,79c-.41-.09-40.29-8.52-44.59-33.67,0-.1-.25-1.21.46-1.62a1.9,1.9,0,0,1,1.46-.08l.53.29.44-.41-2-1.82,1.41-2.12-.53-.28a2.49,2.49,0,0,1-1.93.85s-3.49-.61-3.85-9.95a58.81,58.81,0,0,1,1.46-13l.1-.43,2,.61L6,15a.59.59,0,0,1,.86-.6c1.27.71,6,2.73,13.83-1S30.9,8,31.49,7.58a.8.8,0,0,1,.91,0l1.64,1,.21-1.71a.66.66,0,0,1,.46-.55A77.46,77.46,0,0,1,52.85,3.06V3h.51l.08.4.05-.4.42,0v0A77.92,77.92,0,0,1,72.12,6.28a.67.67,0,0,1,.46.55l.21,1.71,1.63-1a.8.8,0,0,1,.92,0c.59.43,3.11,2.14,10.8,5.8s12.57,1.69,13.84,1a.56.56,0,0,1,.61,0,.58.58,0,0,1,.24.57l-.39,2.46,2-.61.1.42a59.68,59.68,0,0,1,1.46,13c-.36,9.35-3.82,10-3.85,10a2.49,2.49,0,0,1-1.93-.85l-.53.27,1.41,2.13-2,1.82.45.4.47-.25a1.88,1.88,0,0,1,1.52,0c.71.41.48,1.52.45,1.64C95.43,70.39,55.77,78.93,55.37,79Zm-46-34.92a.81.81,0,0,0-.38.08c-.13.08-.13.51-.07.76C11.48,67.5,44.1,76.42,50.53,78a7.85,7.85,0,0,1-.93-1.79,2.66,2.66,0,0,1,.91-3l.31-.24,2.5,3.08a.15.15,0,0,0,.11.06h0a.13.13,0,0,0,.11-.06L56,73l.32.24a2.65,2.65,0,0,1,.91,3A8.64,8.64,0,0,1,56.31,78c6.41-1.57,38.84-10.58,42.84-32.75.07-.31.06-.71-.06-.78a1.13,1.13,0,0,0-.79,0l-.91.5-1.54-1.39,2.16-2-1.52-2.31,1.93-1,.2.27s.65.87,1.43.79c0,0,2.8-.94,3.12-9.18a56.85,56.85,0,0,0-1.35-12.33l-2.38.74.52-3.3c-1.8.86-6.68,2.39-14.16-1.17S75.63,8.8,74.86,8.23L72.14,9.89,71.78,7A75.23,75.23,0,0,0,53.56,3.86h-.29A75.34,75.34,0,0,0,35.05,7l-.36,2.86L32,8.23c-.78.57-3.4,2.3-10.95,5.88s-12.36,2-14.16,1.17l.52,3.3L5,17.85A56.66,56.66,0,0,0,3.66,30.17c.32,8.24,3.09,9.18,3.12,9.18a1.93,1.93,0,0,0,1.42-.78l.21-.28,1.93,1-1.53,2.3,2.17,2L9.43,44.93l-1-.54A1.53,1.53,0,0,0,8.12,44.35Z"/></g></g></svg>