<svg xmlns="http://www.w3.org/2000/svg" viewBox="0 0 26.82 25.46"><defs><style>.cls-1,.cls-2{fill:#969696;}.cls-1{stroke:#b2b1af;stroke-miterlimit:10;stroke-width:0.59px;opacity:0.67;}</style></defs><title>lupa_FotoRecurso 8</title><g id="Capa_2" data-name="Capa 2"><g id="Capa_1-2" data-name="Capa 1"><g id="Desplegable_fin"><rect class="cls-1" x="0.3" y="0.3" width="26.23" height="24.87"/><path class="cls-2" d="M21.31,19.74a4.82,4.82,0,0,1-.51-.38l-4.29-4.28-.11-.16A6.37,6.37,0,0,1,11,16.21,6.2,6.2,0,0,1,7,13.55,6.41,6.41,0,0,1,16.44,5a6.42,6.42,0,0,1,.89,9l.13.13,4.28,4.29a4.15,4.15,0,0,1,.39.52v.28a.81.81,0,0,1-.54.54Zm-3.9-9.8A5.07,5.07,0,1,0,12.35,15,5.09,5.09,0,0,0,17.41,9.94Z"/></g></g></g></svg>