<svg xmlns="http://www.w3.org/2000/svg" viewBox="0 0 37.48 26.35"><defs><style>.cls-1{fill:#969696;}</style></defs><title>MailRecurso 7</title><g id="Capa_2" data-name="Capa 2"><g id="Capa_1-2" data-name="Capa 1"><g id="Desplegable_fin"><path class="cls-1" d="M37.48,23.43A8.21,8.21,0,0,1,36.82,25a3.1,3.1,0,0,1-2.61,1.37H3.51A3.33,3.33,0,0,1,0,23C0,16.45,0,9.91,0,3.37A3.29,3.29,0,0,1,3.47,0H34a3.28,3.28,0,0,1,3.17,1.89,7.4,7.4,0,0,1,.33,1ZM3.81,2.21l.1.14q6.23,6.2,12.46,12.38a3.73,3.73,0,0,0,1.25.79,3.19,3.19,0,0,0,3.58-.86L33.47,2.45l.22-.24Zm9.42,12.46L4,24.13H33.52L24.31,14.6c-.44.46-.73.79-1,1.1a15.08,15.08,0,0,1-1.18,1.09,5.46,5.46,0,0,1-7.29-.51C14.29,15.78,13.79,15.25,13.23,14.67Zm-1.78-1.43L2.23,3.87V22.64ZM35.27,3.85l-.08-.05-9.31,9.46,9.39,9.34Z"/></g></g></g></svg>