<svg xmlns="http://www.w3.org/2000/svg" viewBox="0 0 37.91 24.28"><defs><style>.cls-1{fill:#42210b;}</style></defs><title>MENSAJERecurso 2</title><g id="Capa_2" data-name="Capa 2"><g id="Capa_1-2" data-name="Capa 1"><path class="cls-1" d="M37.91,12.39a5.06,5.06,0,0,1-.1,1,1.8,1.8,0,0,1-1.21,1.19l-.12,0L19.73,19.71A1.92,1.92,0,0,1,18,19.46a1.82,1.82,0,0,1-.71-1c-1.1-3.59-2.21-7.18-3.3-10.78a1.89,1.89,0,0,1,1.34-2.43l6.93-2.12,9.84-3A1.86,1.86,0,0,1,34.1.62a4.67,4.67,0,0,1,.36.51Zm-22.08-6,.09,0q4.46,2.37,8.92,4.71a2.19,2.19,0,0,0,.82.23,1.82,1.82,0,0,0,1.82-1.08l4.7-8.77s0-.09.08-.16Zm7.28,5.26L19.6,18.42l16.25-5L29.18,9.76c-.16.33-.26.56-.38.78a8,8,0,0,1-.47.8,3.14,3.14,0,0,1-4.09.94C23.87,12.09,23.52,11.89,23.11,11.66Zm-1.22-.49-6.64-3.6L18.4,17.89ZM33.4,2l0,0L29.82,8.76l6.73,3.55Z"/><rect class="cls-1" x="2.38" y="15.87" width="10.89" height="1.45" rx="0.73" transform="translate(-4.61 3.1) rotate(-17.41)"/><rect class="cls-1" x="4.12" y="21.41" width="10.89" height="1.45" rx="0.73" transform="translate(-6.19 3.88) rotate(-17.41)"/><rect class="cls-1" x="-0.27" y="19.4" width="13.07" height="1.45" rx="0.73" transform="translate(-5.74 2.8) rotate(-17.41)"/></g></g></svg>