<svg xmlns="http://www.w3.org/2000/svg" viewBox="0 0 54.48 27.58"><defs><style>.cls-1{fill:#533bad;}.cls-2{fill:#78c896;}</style></defs><title>ZinliRecurso 13</title><g id="Capa_2" data-name="Capa 2"><g id="Capa_1-2" data-name="Capa 1"><path class="cls-1" d="M54.48,4.89v18c-.27.07-.25.32-.3.5a6.07,6.07,0,0,1-4.24,4.22H4.39a1.31,1.31,0,0,0-.27-.21,5.66,5.66,0,0,1-4-5.64C0,16.44,0,11.15.06,5.86A5.8,5.8,0,0,1,6.18,0C20.32.1,34.47,0,48.61,0A5.43,5.43,0,0,1,54.1,3.93C54.21,4.25,54.17,4.64,54.48,4.89ZM35.19,16.61l-.83-.67-6.53-5.75c-.2-.18-.39-.47-.69-.36s-.24.51-.24.79c0,1.09,0,2.17,0,3.26v8.25c0,.42,0,.89.57.83.85-.08,1.81.45,2.53-.37.11-.13.06-.41.06-.62v-5.7a1.72,1.72,0,0,1,.86.56c2.14,1.87,4.27,3.75,6.41,5.61.23.21.46.59.83.38s.17-.55.17-.83c0-3.48,0-6.95,0-10.42,0-2,.25-1.82-1.86-1.83-1.27,0-1.27,0-1.28,1.32ZM12.13,12.9l-1.88,2.2q-2.94,3.39-5.87,6.8c-.19.22-.48.43-.35.78s.55.3.87.31.91,0,1.36,0a2,2,0,0,0,1.92-.88c3.2-3.76,6.43-7.47,9.64-11.21.23-.26.65-.49.44-.91s-.65-.26-1-.26h-10c-2.32,0-2-.28-2.06,2,0,.95.31,1.19,1.2,1.16C8.24,12.85,10.05,12.9,12.13,12.9Zm32.13,1c0-2.42,0-4.84,0-7.26s.27-2-2-2c-1.13,0-1.16,0-1.16,1.17,0,5.05,0,10.1,0,15.16,0,2.33-.33,2,2.16,2.1.8,0,1.05-.28,1-1.06C44.24,19.26,44.26,16.57,44.26,13.88Zm-19.9,2.44c0-1.53,0-3.07,0-4.61,0-2.17.34-2-2-2-1.18,0-1.18,0-1.19,1.23,0,3.29,0,6.58,0,9.86,0,2.45-.42,2.15,2.23,2.19.72,0,.94-.29.93-1C24.34,20.13,24.36,18.22,24.36,16.32Zm25.78,0c0-1.54,0-3.08,0-4.62,0-2.22.31-1.94-2-2-.9,0-1.22.23-1.2,1.17.05,3.32,0,6.65,0,10,0,2.39-.39,2.1,2.19,2.15.79,0,1-.33,1-1C50.12,20.1,50.14,18.23,50.14,16.35ZM9.34,23c2.51,0,4.71,0,6.91,0,2.47,0,2.2.48,2.21-2.4,0-.58-.25-.81-.82-.8-1.67,0-3.33,0-5,0a.87.87,0,0,0-.74.27ZM24.73,6.55a2,2,0,0,0-1.95-2,2,2,0,0,0-2,2,2,2,0,0,0,2,2A1.94,1.94,0,0,0,24.73,6.55Zm25.8,0a2,2,0,1,0-3.91,0,2,2,0,1,0,3.91,0Z"/><path class="cls-2" d="M35.19,16.61V11.06c0-1.32,0-1.32,1.28-1.32,2.11,0,1.85-.19,1.86,1.83,0,3.47,0,6.94,0,10.42,0,.28.14.66-.17.83s-.6-.17-.83-.38c-2.14-1.86-4.27-3.74-6.41-5.61a1.72,1.72,0,0,0-.86-.56V22c0,.21.05.49-.06.62-.72.82-1.68.29-2.53.37-.53.06-.57-.41-.57-.83V13.88c0-1.09,0-2.17,0-3.26,0-.28-.13-.66.24-.79s.49.18.69.36l6.53,5.75Z"/><path class="cls-2" d="M12.13,12.9c-2.08,0-3.89-.05-5.7,0-.89,0-1.23-.21-1.2-1.16.08-2.29-.26-2,2.06-2h10c.34,0,.79-.14,1,.26s-.21.65-.44.91c-3.21,3.74-6.44,7.45-9.64,11.21A2,2,0,0,1,6.26,23c-.45-.05-.91,0-1.36,0s-.71.09-.87-.31.16-.56.35-.78q2.94-3.41,5.87-6.8Z"/><path class="cls-2" d="M44.26,13.88c0,2.69,0,5.38,0,8.07,0,.78-.24,1.07-1,1.06-2.49-.06-2.15.23-2.16-2.1,0-5.06,0-10.11,0-15.16,0-1.14,0-1.18,1.16-1.17,2.3,0,2-.25,2,2S44.26,11.46,44.26,13.88Z"/><path class="cls-2" d="M24.36,16.32c0,1.9,0,3.81,0,5.7,0,.69-.21,1-.93,1-2.65,0-2.21.26-2.23-2.19,0-3.28,0-6.57,0-9.86,0-1.22,0-1.23,1.19-1.23,2.3,0,1.94-.18,2,2C24.37,13.25,24.36,14.79,24.36,16.32Z"/><path class="cls-2" d="M50.14,16.35c0,1.88,0,3.75,0,5.62,0,.71-.18,1.05-1,1C46.61,23,47,23.25,47,20.86c0-3.32,0-6.65,0-10,0-.94.3-1.2,1.2-1.17,2.27.07,1.94-.21,2,2C50.16,13.27,50.14,14.81,50.14,16.35Z"/><path class="cls-2" d="M9.34,23l2.57-2.93a.87.87,0,0,1,.74-.27c1.66,0,3.32,0,5,0,.57,0,.82.22.82.8,0,2.88.26,2.37-2.21,2.4C14.05,23,11.85,23,9.34,23Z"/><path class="cls-2" d="M24.73,6.55a1.94,1.94,0,0,1-1.92,2,2,2,0,0,1-2-2,2,2,0,0,1,2-2A2,2,0,0,1,24.73,6.55Z"/><path class="cls-2" d="M50.53,6.57a2,2,0,1,1-3.91,0,2,2,0,1,1,3.91,0Z"/></g></g></svg>